inDegrees=yes
name=ik_S47_A08_T01
DataType=double
version=3
OpenSimVersion=4.3-2021-08-27-4bc7ad9
endheader
time	pelvis_tilt	pelvis_list	pelvis_rotation	pelvis_tx	pelvis_ty	pelvis_tz	hip_flexion_r	hip_adduction_r	hip_rotation_r	knee_angle_r	knee_angle_r_beta	ankle_angle_r	subtalar_angle_r	mtp_angle_r	hip_flexion_l	hip_adduction_l	hip_rotation_l	knee_angle_l	knee_angle_l_beta	ankle_angle_l	subtalar_angle_l	mtp_angle_l	lumbar_extension	lumbar_bending	lumbar_rotation	arm_flex_r	arm_add_r	arm_rot_r	elbow_flex_r	pro_sup_r	wrist_flex_r	wrist_dev_r	arm_flex_l	arm_add_l	arm_rot_l	elbow_flex_l	pro_sup_l	wrist_flex_l	wrist_dev_l
6.099999999999958	-13.75710611127018	-4.927945273251836	30.30120620892959	0	0.9399999999999999	0	39.60665580614715	-12.21197581858646	-10.91677939933543	50.52560445249792	0.8818381542563957	0	0	0	39.60665580614715	-12.21197581858646	-10.91677939933543	50.52560445249792	0.8818381542563957	0	0	0	-14.13430252221251	0.7631147812871545	-2.311654789777151	48.31428601060308	-0.3291864305977015	20.30326522496859	32.89220406126357	105.7283705100664	0	0	76.09322730478428	0.4547332301366014	10.71543465950407	53.78995551174443	57.05840510268938	0	0
6.119999999999957	-13.75154874728316	-4.927425457019018	30.29660580691659	0	0.9399999999999999	0	39.62476879979285	-12.18919844478772	-10.91034295002875	50.53582264658344	0.8820164953867957	0	0	0	39.62476879979285	-12.18919844478772	-10.91034295002875	50.53582264658344	0.8820164953867957	0	0	0	-14.13007899866916	0.7665452456817369	-2.308028614819054	48.2933251632148	-0.3326784005159183	20.31684608982674	32.92539301392535	105.7267193855277	0	0	76.0779558229689	0.4679402979761806	10.71101623891005	53.80328083011174	57.08069528937539	0	0
6.139999999999957	-13.82695938319265	-4.94945523708444	29.91659000359834	0	0.9399999999999999	0	39.6271653828139	-12.18580195477007	-10.90943882660647	50.53715658689983	0.8820397770373417	0	0	0	39.6271653828139	-12.18580195477007	-10.90943882660647	50.53715658689983	0.8820397770373417	0	0	0	-14.17985695592117	0.6783573258023033	-1.941671463077142	48.31637062246085	-0.3523844230930089	20.41033083563909	32.96818072419106	105.6427238279155	0	0	77.52593903197321	1.800904399046695	12.89378561817066	49.72755772902894	55.85426880446169	0	0
6.159999999999957	-13.95035918596206	-4.942875389921235	29.74157990521881	0	0.9399999999999999	0	39.62917137834742	-12.18297504406249	-10.90868473147823	50.53827818888227	0.8820593526848323	0	0	0	39.62917137834742	-12.18297504406249	-10.90868473147823	50.53827818888227	0.8820593526848323	0	0	0	-14.26928564737514	0.6819009431704043	-1.713106649827607	48.50488446340822	-0.4667729338906195	20.44067732361619	32.9886689476594	105.6128739378403	0	0	78.47688810663591	2.521348036131357	13.58158415326653	47.59447488166329	54.94761790109983	0	0
6.179999999999956	-13.9607386204599	-4.942267278588201	29.55819216922919	0	0.9399999999999999	0	39.63262372223367	-12.1780852636795	-10.90738234387766	50.54019735919353	0.8820928485256703	0	0	0	39.63262372223367	-12.1780852636795	-10.90738234387766	50.54019735919353	0.8820928485256703	0	0	0	-14.26607051359745	0.6391213348305457	-1.545427240387119	48.36970615706829	-0.4298937536041162	20.46408026002039	33.12074456525323	105.6185700749502	0	0	79.0709840314541	3.205090254056621	14.32273008787809	45.51217928032239	54.46004231732166	0	0
6.199999999999956	-13.96099779315151	-4.945212213471686	29.44843971728454	0	0.9399999999999999	0	39.63439163377229	-12.17558347777203	-10.90671566447017	50.5411800570245	0.8821099998383729	0	0	0	39.63439163377229	-12.17558347777203	-10.90671566447017	50.5411800570245	0.8821099998383729	0	0	0	-14.25947648068862	0.6031378930345141	-1.431464414323117	48.22399998681894	-0.4000025823112192	20.27904197097968	33.25229538771575	105.7228225137389	0	0	79.50117162569424	3.87779711559868	15.12396367232452	44.8991161441378	54.12816741693616	0	0
6.219999999999955	-14.12505698665265	-4.939029901774827	29.2525141578666	0	0.9399999999999999	0	39.63737298502958	-12.17137226185441	-10.90559252001102	50.54283848730127	0.8821389449071173	0	0	0	39.63737298502958	-12.17137226185441	-10.90559252001102	50.54283848730127	0.8821389449071173	0	0	0	-14.39363217809782	0.6592461437182146	-1.309714461772125	48.40865867168674	-0.4597789050943796	20.36209946093763	33.35406032355412	105.7665894462507	0	0	80.27020303853274	4.450097520242564	15.52973163719408	42.94561867868055	53.77195933258254	0	0
6.239999999999955	-14.26182897915298	-4.924910097991656	29.07215569971683	0	0.9399999999999999	0	39.63898999077213	-12.16910064975391	-10.90498543080242	50.54374186729726	0.8821547118624441	0	0	0	39.63898999077213	-12.16910064975391	-10.90498543080242	50.54374186729726	0.8821547118624441	0	0	0	-14.50065254000837	0.7118308957495375	-1.203270201374289	48.54819415481649	-0.5150974446592707	20.4342274071155	33.45796416382568	105.7821385309816	0	0	80.87037525758309	4.922387894951354	15.90775959174649	41.52655962903167	52.73705334113285	0	0
6.259999999999954	-14.42975624472722	-4.917848055693117	28.79290400105691	0	0.9399999999999999	0	39.64130383198744	-12.16583678028817	-10.9041142526702	50.54502861073485	0.8821771697720584	0	0	0	39.64130383198744	-12.16583678028817	-10.9041142526702	50.54502861073485	0.8821771697720584	0	0	0	-14.64188987890832	0.7869248406261352	-1.144339158548636	48.83874178365679	-0.5259402137378306	20.72103458386028	33.47815857709249	105.7451143308387	0	0	81.14463292625614	5.431179998432612	16.48390125949965	40.5010079104779	51.06910558353798	0	0
6.279999999999954	-14.52654924488956	-4.919602310980365	28.62684592878656	0	0.9399999999999999	0	39.64283664235384	-12.16367807408294	-10.90353766301935	50.5458817288095	0.8821920594913694	0	0	0	39.64283664235384	-12.16367807408294	-10.90353766301935	50.5458817288095	0.8821920594913694	0	0	0	-14.72202929020416	0.8083845095725488	-1.057592182331619	48.80236007799736	-0.474813237858172	20.62546967968515	33.63749754362252	105.8395435123654	0	0	80.97165461593706	6.059907916098496	17.18588022660454	39.83198514676365	49.94886027400915	0	0
6.299999999999954	-14.62969334625116	-4.938987120530022	28.48686175363201	0	0.9399999999999999	0	39.64443312708993	-12.16143107233816	-10.90293729095557	50.54677028366087	0.8822075676991102	0	0	0	39.64443312708993	-12.16143107233816	-10.90293729095557	50.54677028366087	0.8822075676991102	0	0	0	-14.82196283989274	0.8392240515205496	-1.044547319554233	48.88262310599345	-0.4278177905775732	20.654133041824	33.79725337707448	105.8639454979016	0	0	81.10057501782318	6.363758916216164	17.52477784563939	38.94306441581337	49.74856156249541	0	0
6.319999999999953	-14.66087358100256	-4.949424015260036	28.40026162298637	0	0.9399999999999999	0	39.64619036115378	-12.15896747681412	-10.90227806027323	50.54775118728086	0.8822246876969239	0	0	0	39.64619036115378	-12.15896747681412	-10.90227806027323	50.54775118728086	0.8822246876969239	0	0	0	-14.85186706440973	0.8337805580990614	-1.003578909375319	48.79390484597887	-0.4156545296233701	20.62020486527664	33.94644743908065	105.8575413169275	0	0	81.27687147482284	6.588078184652711	17.77271091653752	37.97130718940609	49.95416444846032	0	0
